D:/Krita (x64)/bin/ffmpeg.exe -hide_banner -y -y -r 24 -start_number 0 -start_number_range 1 -i C:/Users/USER/Desktop/krita/video_foleder/frame%04d.png -c:v libopenh264 -b:v 5000k C:/Users/USER/Desktop/krita/video_foleder/spin.mp4
=====================================================
Input #0, image2, from 'C:/Users/USER/Desktop/krita/video_foleder/frame%04d.png':
  Duration: 00:00:00.96, start: 0.000000, bitrate: N/A
  Stream #0:0: Video: png, rgba(pc), 768x512 [SAR 11811:11811 DAR 3:2], 25 fps, 25 tbr, 25 tbn, 25 tbc
Stream mapping:
  Stream #0:0 -> #0:0 (png (native) -> h264 (libopenh264))
Press [q] to stop, [?] for help
[libopenh264 @ 00000243f44f4000] Slice count will be set automatically
[libopenh264 @ 00000243f44f4000] [OpenH264] this = 0x00000243F44EFA80, Warning:SliceArgumentValidationFixedSliceMode(), unsupported setting with Resolution and uiSliceNum combination under RC on! So uiSliceNum is changed to 8!
[libopenh264 @ 00000243f44f4000] [OpenH264] this = 0x00000243F44EFA80, Warning:bEnableFrameSkip = 0,bitrate can't be controlled for RC_QUALITY_MODE,RC_BITRATE_MODE and RC_TIMESTAMP_MODE without enabling skip frame.
Output #0, mp4, to 'C:/Users/USER/Desktop/krita/video_foleder/spin.mp4':
  Metadata:
    encoder         : Lavf58.76.100
  Stream #0:0: Video: h264 (avc1 / 0x31637661), yuv420p(tv, progressive), 768x512 [SAR 1:1 DAR 3:2], q=2-31, 5000 kb/s, 24 fps, 12288 tbn
    Metadata:
      encoder         : Lavc58.134.100 libopenh264
    Side data:
      cpb: bitrate max/min/avg: 5000000/0/5000000 buffer size: 0 vbv_delay: N/A
frame=    1 fps=0.0 q=-0.0 size=       0kB time=00:00:00.00 bitrate=4740.7kbits/s speed=0.0121x    frame=   24 fps=0.0 q=-0.0 Lsize=     258kB time=00:00:00.95 bitrate=2208.0kbits/s speed=6.62x    
video:257kB audio:0kB subtitle:0kB other streams:0kB global headers:0kB muxing overhead: 0.356627%
